<svg viewBox="0 0 20 20" xmlns="http://www.w3.org/2000/svg">
  <circle cx="10" cy="10" r="10" fill="#DE2910"/>
  <!-- Large star (centre-left) -->
  <polygon points="5.5,3 6.6,6.5 10.2,6.5 7.3,8.7 8.4,12.2 5.5,10 2.6,12.2 3.7,8.7 0.8,6.5 4.4,6.5" fill="#FFDE00"/>
  <!-- Small star 1 -->
  <polygon points="11.5,2 12,3.5 13.5,3.5 12.4,4.4 12.8,5.9 11.5,5 10.2,5.9 10.6,4.4 9.5,3.5 11,3.5" fill="#FFDE00"/>
  <!-- Small star 2 -->
  <polygon points="14,4.5 14.5,6 16,6 14.9,6.9 15.3,8.4 14,7.5 12.7,8.4 13.1,6.9 12,6 13.5,6" fill="#FFDE00"/>
  <!-- Small star 3 -->
  <polygon points="14.5,8 15,9.5 16.5,9.5 15.4,10.4 15.8,11.9 14.5,11 13.2,11.9 13.6,10.4 12.5,9.5 14,9.5" fill="#FFDE00"/>
  <!-- Small star 4 -->
  <polygon points="12,11 12.5,12.5 14,12.5 12.9,13.4 13.3,14.9 12,14 10.7,14.9 11.1,13.4 10,12.5 11.5,12.5" fill="#FFDE00"/>
</svg>
