<svg xmlns="http://www.w3.org/2000/svg" viewBox="0 0 1300 360" role="img" aria-label="BlueSkyz Labs logo"><path d="M165 0H738C1084 0 1241 173 1241 402C1241 631 1080 761 931 769V784C1069 818 1183 913 1183 1099C1183 1319 1030 1490 714 1490H165ZM393 196V669H724C902 669 1015 554 1015 413C1015 289 929 196 715 196ZM393 845V1295H698C875 1295 959 1202 959 1080C959 937 843 845 692 845Z" transform="translate(80.000 190.000) scale(0.073242 -0.073242)" fill="#FFFFFF"/><path d="M165 0H1068V196H393V1490H165Z" transform="translate(204.011 190.000) scale(0.073242 -0.073242)" fill="#FFFFFF"/><path d="M759 -23C1115 -23 1351 199 1351 512V1490H1122V531C1122 330 983 184 759 184C534 184 393 330 393 531V1490H165V512C165 199 400 -23 759 -23Z" transform="translate(314.325 190.000) scale(0.073242 -0.073242)" fill="#FFFFFF"/><path d="M165 0H1109V196H393V655H1053V850H393V1294H1103V1490H165Z" transform="translate(450.860 190.000) scale(0.073242 -0.073242)" fill="#FFFFFF"/><path d="M665 -25C1015 -25 1217 159 1217 412C1217 681 978 783 788 832L643 870C529 900 375 953 375 1094C375 1220 489 1312 670 1312C839 1312 960 1234 975 1098H1197C1190 1335 981 1510 675 1510C375 1510 147 1339 147 1081C147 877 291 752 535 687L709 639C869 596 992 545 992 415C992 271 853 175 664 175C492 175 348 251 335 414H106C120 142 330 -25 665 -25Z" transform="translate(566.814 190.000) scale(0.073242 -0.073242)" fill="#FFFFFF"/><path d="M165 0H393V468L602 692L1083 0H1353L761 845L1347 1490H1057L639 1027C544 920 466 824 390 717L393 1014V1490H165Z" transform="translate(689.214 190.000) scale(0.073242 -0.073242)" fill="#FFFFFF"/><path d="M600 0H828V593L1375 1490H1110L833 1015C789 940 753 873 716 783C679 871 643 937 597 1015L317 1490H51L600 593Z" transform="translate(817.839 190.000) scale(0.073242 -0.073242)" fill="#FFFFFF"/><path d="M125 0H1193V196H686C586 196 487 196 388 191C445 263 502 336 552 409L1187 1338V1490H119V1294H630C728 1294 826 1294 924 1299C870 1231 817 1163 770 1095L125 150Z" transform="translate(947.782 190.000) scale(0.073242 -0.073242)" fill="#FFFFFF"/><path d="M165 0H1068V196H393V1490H165Z" transform="translate(383.116 305.000) scale(0.043945 -0.043945)" fill="#FFFFFF"/><path d="M51 0H298L431 393H1017L1154 0H1401L861 1490H581ZM496 583 579 829C616 943 662 1098 720 1311C779 1100 824 948 864 829L950 583Z" transform="translate(471.805 305.000) scale(0.043945 -0.043945)" fill="#FFFFFF"/><path d="M165 0H738C1084 0 1241 173 1241 402C1241 631 1080 761 931 769V784C1069 818 1183 913 1183 1099C1183 1319 1030 1490 714 1490H165ZM393 196V669H724C902 669 1015 554 1015 413C1015 289 929 196 715 196ZM393 845V1295H698C875 1295 959 1202 959 1080C959 937 843 845 692 845Z" transform="translate(573.414 305.000) scale(0.043945 -0.043945)" fill="#FFFFFF"/><path d="M665 -25C1015 -25 1217 159 1217 412C1217 681 978 783 788 832L643 870C529 900 375 953 375 1094C375 1220 489 1312 670 1312C839 1312 960 1234 975 1098H1197C1190 1335 981 1510 675 1510C375 1510 147 1339 147 1081C147 877 291 752 535 687L709 639C869 596 992 545 992 415C992 271 853 175 664 175C492 175 348 251 335 414H106C120 142 330 -25 665 -25Z" transform="translate(670.320 305.000) scale(0.043945 -0.043945)" fill="#FFFFFF"/></svg>